<svg xmlns="http://www.w3.org/2000/svg" fill="none" viewBox="0 0 520 100"><path fill="#DE1783" d="M41.855 29.12H58.42c.24 0 .478-.015.71-.044l-3.294-3.294a1.197 1.197 0 0 1 0-1.687l8.717-8.717V1.195c0-.66-.536-1.195-1.195-1.195H43.81c-4.62 0-8.377 3.758-8.377 8.377v5.937l6.161 6.161c2.375 2.375 2.455 6.168.26 8.652z"></path><path fill="#0071B9" d="M59.159 70.91a6.696 6.696 0 0 0-.666-.037h-16.61l3.338 3.338a1.197 1.197 0 0 1 0 1.687l-9.78 9.788v13.12c0 .658.535 1.194 1.194 1.194h19.461c4.67 0 8.471-3.801 8.471-8.464V84.63l-5.148-5.147c-2.345-2.346-2.425-6.104-.246-8.558z"></path><path fill="#E7194F" d="M91.515 35.433h-5.836l-9.253 9.253a1.184 1.184 0 0 1-.84.347c-.304 0-.608-.116-.84-.347l-3.735-3.736a6.688 6.688 0 0 0-.138 1.383v16.84l3.874-3.873a1.19 1.19 0 0 1 1.68 0l9.252 9.253H98.8c.658 0 1.194-.536 1.194-1.195V43.904c0-4.677-3.801-8.478-8.478-8.478z"></path><path fill="#9B278F" d="M29.12 58.203v-16.32l-2.802 2.81a1.19 1.19 0 0 1-1.68 0l-9.253-9.253H1.195c-.66 0-1.195.536-1.195 1.195v19.273c0 4.771 3.88 8.659 8.66 8.659h6.718l5.792-5.792c2.165-2.165 5.568-2.346 7.95-.557z"></path><path fill="#00B2E2" d="m59.13 29.076 11.88 11.881c.645-3.142 3.432-5.517 6.763-5.517h7.906l9.651-9.65a1.198 1.198 0 0 0 0-1.688l-13.85-13.85a8.305 8.305 0 0 0-5.894-2.44 8.292 8.292 0 0 0-5.893 2.44l-5.133 5.133v7.602a6.147 6.147 0 0 1-5.423 6.096z"></path><path fill="#652F6C" d="m55.836 25.782 3.294 3.294a6.142 6.142 0 0 0 5.423-6.096v-7.602l-8.717 8.717a1.197 1.197 0 0 0 0 1.687"></path><path fill="#7B303F" d="m71.01 40.957 3.737 3.736a1.184 1.184 0 0 0 1.68 0l9.252-9.253h-7.906c-3.33 0-6.118 2.375-6.762 5.517"></path><path fill="#7BC24E" d="M36.628 70.873h5.256L29.779 58.768c-.21-.21-.428-.391-.652-.558v.022a6.334 6.334 0 0 1-6.328 6.328h-7.414l-9.65 9.65a1.197 1.197 0 0 0 0 1.688l13.799 13.8a8.394 8.394 0 0 0 5.944 2.461c2.15 0 4.308-.818 5.951-2.462l4.018-4.018V72.061c0-.66.536-1.195 1.195-1.195z"></path><path fill="#005851" d="m45.222 74.21-3.338-3.337h-5.256c-.66 0-1.195.536-1.195 1.195v13.618l9.781-9.788a1.197 1.197 0 0 0 0-1.687z"></path><path fill="#5B4623" d="M29.12 58.225v-.022c-2.382-1.788-5.785-1.607-7.95.557l-5.792 5.793h7.414a6.334 6.334 0 0 0 6.328-6.328"></path><path fill="#F99C24" d="M70.873 63.365v-4.192l-11.46 11.461c-.088.087-.167.181-.247.275a6.068 6.068 0 0 1 5.394 6.024v7.682l10.187 10.187a1.19 1.19 0 0 0 1.68 0l13.806-13.807a8.345 8.345 0 0 0 2.462-5.944 8.329 8.329 0 0 0-2.462-5.937L85.68 64.56H72.061a1.196 1.196 0 0 1-1.195-1.195z"></path><path fill="#5E4638" d="M59.159 70.91c-2.18 2.447-2.1 6.211.246 8.557l5.148 5.148v-7.682c0-3.113-2.368-5.69-5.394-6.024"></path><path fill="#B2292D" d="M75.586 54.952c-.318 0-.615.123-.84.348l-3.873 3.873v4.192c0 .659.536 1.195 1.195 1.195h13.618l-9.253-9.253a1.19 1.19 0 0 0-.84-.348z"></path><path fill="#F05023" d="M29.12 36.628v5.256l12.474-12.475c.094-.094.174-.188.26-.29h-.282a6.147 6.147 0 0 1-6.139-6.139v-8.674l-9.122-9.122a1.19 1.19 0 0 0-1.68 0L10.969 18.846c-3.36 3.36-3.36 8.826 0 12.185l4.409 4.41h12.547c.659 0 1.195.535 1.195 1.194z"></path><path fill="#B12029" d="M41.573 29.12h.282c2.194-2.477 2.114-6.277-.26-8.652l-6.162-6.162v8.674a6.147 6.147 0 0 0 6.14 6.14"></path><path fill="#7F2729" d="M25.47 45.033c.32 0 .616-.123.84-.347l2.802-2.81V36.62c0-.658-.535-1.194-1.194-1.194H15.37l9.253 9.252c.224.225.528.348.84.348z"></path><path fill="#5B6770" d="M112.033 49.493c0-11.562 9.485-20.692 21.344-20.692 5.69 0 9.484 1.484 12.272 3.026.478.24.593.652.354 1.007l-2.077 4.33c-.181.477-.594.477-.949.296-2.49-1.303-5.452-2.671-9.781-2.671-7.711 0-14.292 6.523-14.292 14.704 0 8.775 6.465 14.82 14.35 14.82 4.271 0 7.471-1.303 9.962-2.729.413-.239.71-.18.949.24l2.077 4.445c.181.412.116.709-.354.948-3.085 1.658-6.878 3.084-12.685 3.084-12.511 0-21.163-8.123-21.163-20.808zM151.882 49.254c-.535.297-.89.24-1.064-.239l-1.303-2.96c-.181-.413-.181-.652.297-.95 2.729-1.78 6.639-2.845 10.614-2.845 2.671 0 5.987.478 8.239 2.962 1.426 1.6 2.252 3.793 2.252 7.232v16.544c0 .413-.297.71-.71.71h-4.033a.72.72 0 0 1-.709-.71v-.71h-.239c-2.549 1.6-4.8 2.013-7.646 2.013-2.432 0-4.742-.651-6.465-2.013-1.716-1.36-2.845-3.439-2.845-6.103 0-3.62 2.135-5.69 5.22-6.936 3.439-1.361 7.942-1.781 11.323-2.013v-.71c0-1.954-.297-3.141-1.064-4.09-.949-1.187-2.491-1.542-4.091-1.542-2.903 0-5.575 1.187-7.768 2.375zm12.924 15.06v-6.936c-6.4.354-10.73 1.542-10.73 4.684 0 2.606 2.607 3.794 5.394 3.794 1.781 0 3.62-.536 5.336-1.542M175.203 29.337h4.626c.413 0 .71.355.71.767v38.894c0 .413-.297.71-.71.71h-4.626c-.413 0-.768-.297-.768-.71V30.104c0-.412.355-.767.768-.767M205.278 70.301c-11.62 0-21.344-8.717-21.344-20.692s9.724-20.808 21.344-20.808c11.62 0 21.344 8.775 21.344 20.808s-9.782 20.692-21.344 20.692m0-35.273c-8.123 0-14.35 6.465-14.35 14.588 0 8.124 6.227 14.524 14.35 14.524s14.292-6.408 14.292-14.524-6.169-14.588-14.292-14.588M239.56 42.26c4.8 0 9.014 1.304 11.859 4.033 2.433 2.31 3.975 5.633 3.975 9.962 0 4.33-1.303 7.472-3.323 9.724-2.788 3.084-6.936 4.33-10.73 4.33-2.078 0-3.62-.182-5.22-.833v13.343a.72.72 0 0 1-.71.71h-4.626c-.413 0-.768-.355-.768-.71V43.926c0-.413.239-.768.833-.891 2.252-.478 5.575-.767 8.717-.767zm-3.439 22.17c1.361.651 2.729.89 4.626.89 2.078 0 4.388-.536 6.169-2.252 1.484-1.36 2.374-3.678 2.374-6.82 0-2.787-.832-4.981-2.309-6.523-1.658-1.658-4.033-2.549-6.82-2.549-1.303 0-2.788.116-4.033.297V64.43zM265.544 59.687c0 1.542.239 2.788.71 3.678.652 1.13 1.716 1.723 3.497 1.723 1.361 0 2.787-.412 4.33-1.6.477-.355.89-.297 1.129.116l1.542 3.323c.181.355.058.71-.297.949-2.136 1.542-5.097 2.432-8.239 2.432-3.323 0-5.452-1.006-6.762-2.606-1.542-1.839-2.013-4.503-2.013-7.233V47.546h-3.026c-.413 0-.768-.355-.768-.71v-3.381c0-.355.355-.71.768-.71h3.026v-5.278c0-.354.355-.71.768-.71h4.626c.355 0 .709.356.709.71v5.278h8.421c.354 0 .709.355.709.71v3.381c0 .355-.355.71-.709.71h-8.421v12.156zM278.707 35.643c0-1.955 1.6-3.497 3.555-3.497s3.555 1.542 3.555 3.497c0 1.955-1.6 3.555-3.555 3.555a3.529 3.529 0 0 1-3.555-3.555m1.303 7.088h4.627a.72.72 0 0 1 .709.71v25.55c0 .412-.297.71-.709.71h-4.627c-.413 0-.767-.298-.767-.71V43.44c0-.355.354-.71.767-.71M295.439 68.998c0 .413-.297.71-.71.71h-4.626c-.413 0-.768-.297-.768-.71v-25.55c0-.355.355-.71.768-.71h4.387c.413 0 .768.355.768.71v1.839h.181c1.723-2.013 4.387-3.027 7.291-3.027 2.012 0 3.909.413 5.574 1.427 1.362.832 2.433 1.955 3.085 3.323.767-1.187 1.897-2.549 3.555-3.497 1.542-.89 3.381-1.245 5.393-1.245 2.788 0 5.517.767 7.472 2.606 1.781 1.658 2.846 4.33 2.846 8.24v15.891c0 .413-.297.71-.71.71h-4.569c-.412 0-.767-.297-.767-.71v-14.35c0-2.31-.478-4.271-1.542-5.574-.891-1.007-2.252-1.659-4.149-1.659-1.897 0-3.62.891-4.568 2.433-.949 1.542-1.303 3.678-1.303 6.227v12.923c0 .413-.297.71-.71.71h-4.568c-.413 0-.768-.297-.768-.71v-14.35c0-2.31-.478-4.271-1.542-5.574-.89-1.007-2.252-1.659-4.149-1.659-1.896 0-3.62.949-4.568 2.607-.891 1.542-1.303 3.678-1.303 6.284zM337.062 49.254c-.536.297-.891.24-1.064-.239l-1.303-2.96c-.182-.413-.182-.652.296-.95 2.73-1.78 6.64-2.845 10.614-2.845 2.672 0 5.988.478 8.24 2.962 1.426 1.6 2.251 3.793 2.251 7.232v16.544c0 .413-.297.71-.709.71h-4.033a.72.72 0 0 1-.71-.71v-.71h-.239c-2.548 1.6-4.8 2.013-7.645 2.013-2.433 0-4.742-.651-6.458-2.013-1.723-1.36-2.846-3.439-2.846-6.103 0-3.62 2.136-5.69 5.221-6.936 3.439-1.361 7.942-1.781 11.323-2.013v-.71c0-1.954-.297-3.141-1.064-4.09-.949-1.187-2.491-1.542-4.091-1.542-2.903 0-5.575 1.187-7.769 2.375zm12.924 15.06v-6.936c-6.401.354-10.73 1.542-10.73 4.684 0 2.606 2.606 3.794 5.394 3.794 1.781 0 3.62-.536 5.336-1.542M403.258 29.945c.413 0 .702.348.702.746v37.72c0 .406-.289.688-.702.688h-5.09c-.412 0-.76-.29-.76-.687V52.31h-21.011v16.102c0 .405-.347.687-.702.687h-5.148c-.347 0-.702-.29-.702-.687V30.69c0-.406.348-.746.702-.746h5.148c.355 0 .702.348.702.746v15.87h21.011v-15.87c0-.406.348-.746.76-.746zM428.939 63.539c.528-.29.876-.116 1.049.174l1.579 2.925c.231.347.058.702-.29.934-2.165 1.52-6.031 2.809-10.071 2.809-4.445 0-8.08-1.463-10.534-4.098-2.339-2.462-3.685-5.973-3.685-10.129 0-3.866 1.404-7.254 3.743-9.716 2.223-2.339 5.502-3.743 9.716-3.743 4.568 0 7.964 1.694 10.006 4.387 1.933 2.52 2.751 6.205 2.519 10.245-.058.47-.347.818-.818.818h-18.846c.174 2.107.876 3.685 1.991 4.916 1.463 1.702 3.686 2.578 6.321 2.578 2.867 0 5.271-.876 7.32-2.107zm-1.76-9.42c-.116-1.875-.644-3.337-1.759-4.568-1.115-1.23-2.809-2.049-5.032-2.049s-4.156.818-5.329 2.165c-.991 1.173-1.636 2.751-1.759 4.445h13.872zM438.401 49.609c-.528.29-.876.232-1.049-.232l-1.289-2.925c-.174-.412-.174-.644.289-.934 2.694-1.759 6.553-2.809 10.477-2.809 2.635 0 5.908.47 8.138 2.925 1.404 1.579 2.222 3.743 2.222 7.139v16.334c0 .412-.289.702-.702.702h-3.982a.712.712 0 0 1-.702-.702v-.703h-.232c-2.519 1.579-4.742 1.991-7.551 1.991-2.397 0-4.685-.644-6.379-1.99-1.694-1.347-2.809-3.396-2.809-6.032 0-3.57 2.107-5.618 5.148-6.849 3.395-1.346 7.841-1.76 11.178-1.99v-.703c0-1.933-.289-3.099-1.057-4.04-.934-1.173-2.461-1.52-4.04-1.52-2.867 0-5.502 1.172-7.667 2.338zm12.765 14.871v-6.849c-6.321.348-10.593 1.52-10.593 4.627 0 2.577 2.578 3.743 5.329 3.743 1.759 0 3.569-.529 5.271-1.52zM461.975 29.945h4.569c.412 0 .702.348.702.76V69.1c0 .413-.29.703-.702.703h-4.569c-.413 0-.76-.29-.76-.703V30.705a.77.77 0 0 1 .76-.76M479.402 59.912c0 1.52.232 2.75.702 3.627.645 1.115 1.702 1.701 3.454 1.701 1.346 0 2.751-.412 4.271-1.578.471-.347.877-.29 1.115.116l1.521 3.28c.174.347.058.702-.29.934-2.107 1.52-5.032 2.396-8.138 2.396-3.279 0-5.386-.992-6.675-2.577-1.52-1.818-1.991-4.446-1.991-7.14V47.916h-2.983c-.413 0-.76-.348-.76-.702v-3.338c0-.348.347-.702.76-.702h2.983V37.96c0-.348.348-.703.76-.703h4.569c.354 0 .702.348.702.703v5.213h8.312c.347 0 .702.347.702.702v3.338c0 .354-.355.702-.702.702h-8.312zM499.537 46.742c1.933-2.693 4.974-4.098 8.659-4.098 3.041 0 5.792.76 7.725 2.52 1.991 1.759 3.099 4.626 3.099 8.659v15.276a.708.708 0 0 1-.703.703h-4.568c-.413 0-.76-.29-.76-.703V55.285c0-2.396-.348-4.568-1.694-5.973-.934-.934-2.281-1.52-4.272-1.52-2.693 0-4.8 1.23-6.089 3.511-.992 1.818-1.405 4.04-1.405 6.205v11.591c0 .413-.289.703-.702.703h-4.568c-.413 0-.761-.29-.761-.703V30.705a.77.77 0 0 1 .761-.76h4.568c.413 0 .702.348.702.76v16.037z"></path></svg>